<svg xmlns="http://www.w3.org/2000/svg" xmlns:xlink="http://www.w3.org/1999/xlink" viewBox="0 0 1283.27 1064.57"><defs><style>.cls-1{fill:none;}.cls-2{fill:#fca311;}.cls-3{clip-path:url(#clip-path);}.cls-4{clip-path:url(#clip-path-2);}</style><clipPath id="clip-path"><rect class="cls-1" x="6.37" y="1.02" width="382.12" height="1063.56"/></clipPath><clipPath id="clip-path-2"><rect class="cls-1" x="388.48" y="1.02" width="382.12" height="1063.56" transform="translate(1159.08 1065.59) rotate(-180)"/></clipPath></defs><title>Asset 1</title><g id="Layer_2" data-name="Layer 2"><g id="Layer_1-2" data-name="Layer 1"><path class="cls-2" d="M751.49,166.22c-3.56,0-7.13.06-10.63.19L827.34,0c200,28.59,364.16,168.45,427.65,354.86H1068.33C1007.32,242.45,888.35,166.22,751.49,166.22Z"/><path class="cls-2" d="M1283.27,526.43a521.37,521.37,0,0,1-6.94,85.78c-41,252.9-261.33,424-524.84,446-76.42,6.36-140.11,6.36-213.85,6.36V816.33a358.65,358.65,0,0,0,213.85,70.31c169.41,0,311.49-116.87,350-274.43H832.26V440.64h444.07A521.59,521.59,0,0,1,1283.27,526.43Z"/><g class="cls-3"><polygon class="cls-2" points="776.97 1.02 682.88 185.43 626.88 296.55 584.15 378.82 489.3 561.31 489.3 1064.57 291.88 1064.57 291.88 565.56 4.01 1.02 200.55 1.02 390.57 380.07 485.97 190.75 582.74 1.02 776.97 1.02"/></g><g class="cls-4"><polygon class="cls-2" points="0 1.02 94.09 185.43 150.09 296.55 192.82 378.82 287.67 561.31 287.67 1064.57 485.09 1064.57 485.09 565.56 772.96 1.02 576.42 1.02 386.4 380.07 291 190.75 194.23 1.02 0 1.02"/></g></g></g></svg>
